<svg xmlns="http://www.w3.org/2000/svg" xml:space="preserve" width="170px" height="51px" version="1.1" style="shape-rendering:geometricPrecision; text-rendering:geometricPrecision; image-rendering:optimizeQuality; fill-rule:evenodd; clip-rule:evenodd" viewBox="0 0 170 51" xmlns:xlink="http://www.w3.org/1999/xlink">
<defs></defs>
<g id="Слой_x0020_1">
<metadata id="CorelCorpID_0Corel-Layer"></metadata>
<path class="fil0" fill="#9b0a0a" d="M3.15 5.5l40 0 0 40 -40 0 0 -40zm17.89 29.46l-10.89 0 0 -18.91 10.89 0 0 3.28 -6.88 0 0 4.16 6.4 0 0 3.28 -6.4 0 0 4.88 6.88 0 0 3.31zm15.11 -5.25c0,1.71 -0.62,3.05 -1.85,4.04 -1.22,0.98 -2.94,1.47 -5.13,1.47 -2.01,0 -3.8,-0.38 -5.35,-1.14l0 -3.72c1.28,0.57 2.36,0.97 3.24,1.2 0.88,0.24 1.69,0.35 2.42,0.35 0.89,0 1.56,-0.17 2.03,-0.5 0.47,-0.34 0.7,-0.84 0.7,-1.5 0,-0.37 -0.1,-0.71 -0.3,-0.99 -0.21,-0.29 -0.52,-0.57 -0.92,-0.84 -0.4,-0.27 -1.22,-0.69 -2.45,-1.28 -1.15,-0.54 -2.02,-1.06 -2.6,-1.56 -0.58,-0.5 -1.04,-1.09 -1.38,-1.75 -0.35,-0.66 -0.52,-1.44 -0.52,-2.33 0,-1.67 0.56,-2.99 1.7,-3.94 1.13,-0.96 2.7,-1.44 4.7,-1.44 0.98,0 1.92,0.12 2.82,0.35 0.89,0.23 1.82,0.56 2.79,0.98l-1.29 3.12c-1.01,-0.41 -1.84,-0.7 -2.5,-0.86 -0.66,-0.17 -1.31,-0.25 -1.95,-0.25 -0.76,0 -1.34,0.17 -1.75,0.53 -0.4,0.35 -0.61,0.81 -0.61,1.38 0,0.36 0.09,0.67 0.25,0.93 0.17,0.26 0.43,0.51 0.78,0.76 0.36,0.25 1.21,0.69 2.55,1.32 1.77,0.85 2.98,1.7 3.63,2.55 0.66,0.85 0.99,1.89 0.99,3.12z"></path>
<path class="fil1" d="M66.57 37.63l-13.4 0 0 -23.28 13.4 0 0 4.04 -8.47 0 0 5.12 7.88 0 0 4.05 -7.88 0 0 5.99 8.47 0 0 4.08zm2.9 -6.75l0 -3.98 8.55 0 0 3.98 -8.55 0zm26.2 0.29c0,2.11 -0.77,3.76 -2.28,4.97 -1.51,1.21 -3.61,1.82 -6.31,1.82 -2.48,0 -4.68,-0.47 -6.59,-1.41l0 -4.58c1.57,0.7 2.9,1.19 3.99,1.48 1.08,0.29 2.08,0.43 2.98,0.43 1.09,0 1.92,-0.21 2.49,-0.62 0.59,-0.41 0.87,-1.03 0.87,-1.85 0,-0.45 -0.12,-0.86 -0.38,-1.21 -0.25,-0.36 -0.63,-0.7 -1.12,-1.03 -0.5,-0.33 -1.5,-0.86 -3.02,-1.58 -1.42,-0.67 -2.49,-1.31 -3.2,-1.93 -0.71,-0.61 -1.28,-1.33 -1.7,-2.15 -0.43,-0.81 -0.64,-1.77 -0.64,-2.86 0,-2.06 0.7,-3.68 2.09,-4.86 1.4,-1.18 3.33,-1.76 5.79,-1.76 1.21,0 2.36,0.14 3.47,0.42 1.09,0.29 2.24,0.69 3.44,1.22l-1.59 3.83c-1.24,-0.51 -2.27,-0.86 -3.08,-1.06 -0.82,-0.2 -1.61,-0.31 -2.4,-0.31 -0.93,0 -1.65,0.22 -2.15,0.66 -0.5,0.43 -0.75,1 -0.75,1.7 0,0.44 0.1,0.82 0.3,1.14 0.21,0.32 0.53,0.63 0.97,0.94 0.44,0.3 1.48,0.85 3.13,1.63 2.18,1.04 3.66,2.08 4.47,3.13 0.81,1.05 1.22,2.32 1.22,3.84zm23.27 6.46l-4.91 0 0 -10.04 -9.22 0 0 10.04 -4.93 0 0 -23.28 4.93 0 0 9.13 9.22 0 0 -9.13 4.91 0 0 23.28zm27.01 -11.67c0,3.86 -0.95,6.82 -2.86,8.89 -1.92,2.07 -4.65,3.11 -8.22,3.11 -3.56,0 -6.3,-1.04 -8.21,-3.11 -1.92,-2.07 -2.87,-5.04 -2.87,-8.91 0,-3.88 0.96,-6.84 2.88,-8.88 1.91,-2.05 4.66,-3.07 8.23,-3.07 3.58,0 6.32,1.03 8.21,3.09 1.9,2.06 2.84,5.02 2.84,8.88zm-16.99 0c0,2.61 0.5,4.56 1.48,5.88 0.99,1.32 2.47,1.98 4.43,1.98 3.94,0 5.91,-2.62 5.91,-7.86 0,-5.24 -1.96,-7.86 -5.88,-7.86 -1.96,0 -3.44,0.66 -4.44,1.98 -0.99,1.32 -1.5,3.29 -1.5,5.88zm26.74 -0.65l1.63 0c1.52,0 2.66,-0.3 3.41,-0.91 0.75,-0.59 1.13,-1.47 1.13,-2.62 0,-1.15 -0.32,-2.01 -0.95,-2.56 -0.63,-0.55 -1.62,-0.83 -2.97,-0.83l-2.25 0 0 6.92zm11.15 -3.7c0,2.51 -0.78,4.42 -2.35,5.75 -1.56,1.33 -3.79,1.99 -6.68,1.99l-2.12 0 0 8.28 -4.93 0 0 -23.28 7.43 0c2.83,0 4.98,0.61 6.45,1.82 1.47,1.22 2.2,3.03 2.2,5.44z"></path>
</g>
</svg>